<svg width="28" height="28" viewBox="0 0 28 28" fill="none" xmlns="http://www.w3.org/2000/svg">
  <path d="M8.1808 15.5582H14.0955C14.6179 15.5582 15.0297 15.154 15.0297 14.624V6.94707C15.0297 6.42465 14.6179 6.02246 14.0955 6.02246C13.5752 6.02246 13.1709 6.42465 13.1709 6.94707V13.6994H8.1808C7.65088 13.6994 7.24658 14.1037 7.24658 14.624C7.24658 15.154 7.65088 15.5582 8.1808 15.5582Z" fill="currentColor" />
  <path d="M14.105 26.21C20.7369 26.21 26.2121 20.7273 26.2121 14.105C26.2121 7.47312 20.7273 2 14.0954 2C7.47523 2 2 7.47312 2 14.105C2 20.7273 7.48484 26.21 14.105 26.21ZM14.105 23.8255C8.71085 23.8255 4.39412 19.4991 4.39412 14.105C4.39412 8.71085 8.70124 4.38452 14.0954 4.38452C19.4895 4.38452 23.8276 8.71085 23.8276 14.105C23.8276 19.4991 19.4991 23.8255 14.105 23.8255Z" fill="currentColor" />
</svg>