<svg width="31" height="28" viewBox="0 0 31 28" fill="none" xmlns="http://www.w3.org/2000/svg">
  <path d="M10.0481 24.8823H13.3327C11.8317 24.248 10.7203 22.6986 10.7203 20.9115C10.7203 18.5389 12.6656 16.602 15.0234 16.602C17.3695 16.602 19.3149 18.5389 19.3149 20.9115C19.3149 22.6986 18.2034 24.248 16.7025 24.8823H19.987C20.9046 23.8039 21.4324 22.4047 21.4324 20.9094C21.4324 17.3705 18.5283 14.4706 15.0234 14.4706C11.5069 14.4706 8.60273 17.3705 8.60273 20.9094C8.60273 22.4047 9.13055 23.8039 10.0481 24.8823ZM2.62101 21.4948H5.33719C5.98242 21.4948 6.47742 21.0329 6.46781 20.4591C6.4582 19.8833 5.97281 19.4213 5.33719 19.4213H2.62101C1.97578 19.4213 1.5 19.8833 1.5 20.4591C1.5 21.0329 1.97789 21.4948 2.62101 21.4948ZM8.96813 14.8562C9.36726 14.4474 9.36516 13.7694 8.90836 13.3222L6.98531 11.4034C6.52429 10.9424 5.86969 10.9499 5.46094 11.349C5.05219 11.746 5.04258 12.4144 5.5132 12.8755L7.43415 14.7922C7.88344 15.249 8.5711 15.2649 8.96813 14.8562ZM21.067 14.8562C21.4737 15.2553 22.1517 15.249 22.601 14.7922L24.522 12.8755C24.9926 12.4144 24.9734 11.7556 24.5742 11.349C24.1772 10.9403 23.5109 10.9424 23.0498 11.4034L21.1268 13.3222C20.67 13.7694 20.6583 14.4591 21.067 14.8562ZM24.698 21.4948H27.4141C28.0615 21.4948 28.5352 21.0329 28.5352 20.4591C28.5352 19.8833 28.0615 19.4213 27.4141 19.4213H24.698C24.0645 19.4213 23.5577 19.8833 23.5673 20.4591C23.577 21.0329 24.0666 21.4948 24.698 21.4948Z" fill="currentColor" />
  <path d="M1.16296 26.6996H28.8722C29.5073 26.6996 30.0352 26.1934 30.0352 25.5934C30.0352 24.9849 29.5095 24.4871 28.8722 24.4871H1.16296C0.52781 24.4871 0 24.9913 0 25.5934C0 26.187 0.529919 26.6996 1.16296 26.6996ZM15.0234 11.6869C15.5876 11.6869 16.0591 11.1919 16.0591 10.5756L16.057 6.41093L15.889 4.56757L16.7266 5.59319L18.0734 6.99078C18.2723 7.19491 18.5182 7.33413 18.7978 7.33413C19.3214 7.33413 19.7034 6.95749 19.7034 6.45195C19.7034 6.16578 19.5834 5.93609 19.3526 5.71906L15.7427 2.33844C15.4755 2.09258 15.2723 2 15.0234 2C14.7628 2 14.5617 2.09258 14.2924 2.33844L10.6826 5.71906C10.4517 5.93609 10.3317 6.16578 10.3317 6.45195C10.3317 6.95749 10.7138 7.33413 11.2373 7.33413C11.517 7.33413 11.7628 7.19491 11.9618 6.99078L13.4088 5.49499L14.1462 4.56757L13.9781 6.41093L13.976 10.5756C13.976 11.1919 14.4476 11.6869 15.0234 11.6869Z" fill="currentColor" />
</svg>